# xmcd CD database file
#
# Track frame offsets:
#	150
#	30996
#	51599
#	71135
#	97078
#	116263
#	132183
#	156589
#	182906
#	212435
#	234016
#	254703
#
# Disc length: 3804 seconds
#
# Revision: 0
# Processed by: cddbd v1.5.2PL0 Copyright (c) Steve Scherf et al.
# Submitted via: CDex 1.70beta2
#
DISCID=ab0eda0c
DTITLE=Joe Bonamassa - Dust Bowl
DYEAR=2011
DGENRE=Blues
TTITLE0=Slow Train
TTITLE1=Dust Bowl
TTITLE2=Tennessee Plates
TTITLE3=The Meaning of the Blues
TTITLE4=Black Lung Heartache
TTITLE5=You Better Watch Yourself
TTITLE6=The Last Matador of Bayonne
TTITLE7=Heartbreaker
TTITLE8=No Love on the Street
TTITLE9=The Whale That Swallowed Jonah
TTITLE10=Sweet Rowena
TTITLE11=Prisoner
EXTD=YEAR: 2011
EXTT0=
EXTT1=
EXTT2=
EXTT3=
EXTT4=
EXTT5=
EXTT6=
EXTT7=
EXTT8=
EXTT9=
EXTT10=
EXTT11=
PLAYORDER=
